HIERARCHY
ROOT root
{
	OFFSET 0.000000 0.000000 0.000000
	CHANNELS 6 Xposition Yposition Zposition Zrotation Yrotation Xrotation
	JOINT lhip
	{
		OFFSET 0.058581 -0.082280 -0.017664
		CHANNELS 3 Zrotation Yrotation Xrotation
		JOINT lknee
		{
			OFFSET 0.043451 -0.386469 0.008037
			CHANNELS 3 Zrotation Yrotation Xrotation
			JOINT lankle
			{
				OFFSET -0.014790 -0.426874 -0.037428
				CHANNELS 3 Zrotation Yrotation Xrotation
				JOINT ltoe
				{
					OFFSET 0.041054 -0.060286 0.122042
					CHANNELS 3 Zrotation Yrotation Xrotation
					End Site
					{
						OFFSET 0.000000 0.000000 0.000000
					}
				}
			}
		}
	}
	JOINT rhip
	{
		OFFSET -0.060310 -0.090513 -0.013543
		CHANNELS 3 Zrotation Yrotation Xrotation
		JOINT rknee
		{
			OFFSET -0.043257 -0.383688 -0.004843
			CHANNELS 3 Zrotation Yrotation Xrotation
			JOINT rankle
			{
				OFFSET 0.019056 -0.420046 -0.034562
				CHANNELS 3 Zrotation Yrotation Xrotation
				JOINT rtoe
				{
					OFFSET -0.034840 -0.062106 0.130323
					CHANNELS 3 Zrotation Yrotation Xrotation
					End Site
					{
						OFFSET 0.000000 0.000000 0.000000
					}
				}
			}
		}
	}
	JOINT lowerback
	{
		OFFSET 0.004439 0.124404 -0.038385
		CHANNELS 3 Zrotation Yrotation Xrotation
		JOINT upperback
		{
			OFFSET 0.004488 0.137956 0.026820
			CHANNELS 3 Zrotation Yrotation Xrotation
			JOINT chest
			{
				OFFSET -0.002265 0.056032 0.002855
				CHANNELS 3 Zrotation Yrotation Xrotation
				JOINT lowerneck
				{
					OFFSET -0.013390 0.211636 -0.033468
					CHANNELS 3 Zrotation Yrotation Xrotation
					JOINT upperneck
					{
						OFFSET 0.010113 0.088937 0.050410
						CHANNELS 3 Zrotation Yrotation Xrotation
						End Site
						{
							OFFSET 0.000000 0.000000 0.000000
						}
					}
				}
				JOINT lclavicle
				{
					OFFSET 0.071702 0.114000 -0.018898
					CHANNELS 3 Zrotation Yrotation Xrotation
					JOINT lshoulder
					{
						OFFSET 0.122921 0.045205 -0.019046
						CHANNELS 3 Zrotation Yrotation Xrotation
						JOINT lelbow
						{
							OFFSET 0.255332 -0.015649 -0.022946
							CHANNELS 3 Zrotation Yrotation Xrotation
							JOINT lwrist
							{
								OFFSET 0.265709 0.012698 -0.007375
								CHANNELS 3 Zrotation Yrotation Xrotation
								End Site
								{
									OFFSET 0.000000 0.000000 0.000000
								}
							}
						}
					}
				}
				JOINT rclavicle
				{
					OFFSET -0.082954 0.112472 -0.023707
					CHANNELS 3 Zrotation Yrotation Xrotation
					JOINT rshoulder
					{
						OFFSET -0.113228 0.046853 -0.008472
						CHANNELS 3 Zrotation Yrotation Xrotation
						JOINT relbow
						{
							OFFSET -0.260127 -0.014369 -0.031269
							CHANNELS 3 Zrotation Yrotation Xrotation
							JOINT rwrist
							{
								OFFSET -0.269108 0.006794 -0.006027
								CHANNELS 3 Zrotation Yrotation Xrotation
								End Site
								{
									OFFSET 0.000000 0.000000 0.000000
								}
							}
						}
					}
				}
			}
		}
	}
}
MOTION
Frames: 11
Frame Time: 0.033333
-0.629886 0.773960 0.987666 109.492944 3.566316 89.948441 0.660331 1.224700 5.498146 -1.713478 -4.555787 3.726506 4.629592 11.230915 -15.521056 0.000000 -0.000000 0.000000 2.336392 0.350661 -10.585874 0.082781 -5.144739 18.248305 0.529029 -9.484319 -10.911408 0.000000 -0.000000 0.000000 2.300129 -1.754221 7.457135 2.672409 -0.492306 -2.864450 0.715722 -1.422433 2.369427 1.216829 1.099419 -10.443041 -3.024437 -6.078928 9.464858 -24.852642 7.810173 1.019294 -60.971122 -6.611466 9.936580 11.373095 -30.706858 7.084340 -1.300855 -9.742926 -9.393846 26.927061 -0.067711 -1.840326 59.193585 5.033183 17.133258 -16.509274 25.252181 -3.965788 -1.865243 6.300595 -8.817745 
-0.628818 0.774768 0.987603 109.604076 3.508059 89.939060 0.656784 1.319479 5.622686 -1.785388 -4.787526 3.685829 4.673970 11.269175 -15.586637 0.000000 -0.000000 0.000000 2.133240 0.423267 -10.415520 0.494125 -4.603106 18.083513 0.586141 -10.217086 -10.845537 0.000000 -0.000000 0.000000 2.161487 -1.733272 7.362451 2.697441 -0.456415 -2.777504 0.644877 -1.552959 2.602718 1.538489 1.677926 -11.159325 -3.309330 -5.588006 10.012493 -24.859660 7.968115 0.883962 -60.772472 -6.699185 10.096150 11.432233 -30.980695 7.491219 -1.148479 -9.825097 -9.750956 27.247765 -0.329506 -1.853149 59.176930 5.332263 17.489722 -16.809984 25.535995 -4.368320 -3.065931 6.358670 -9.162643 
-0.628409 0.775146 0.987762 109.672102 3.476768 89.909559 0.683312 1.384606 5.688684 -1.897738 -4.706694 3.681735 4.610844 11.076608 -15.606267 0.000000 -0.000000 0.000000 2.230617 0.148074 -10.317658 0.072829 -5.132533 18.083816 0.602756 -9.522848 -10.991083 0.000000 -0.000000 0.000000 2.179181 -1.599224 7.603166 2.652456 -0.542057 -2.742972 0.600722 -1.556720 2.497129 1.295405 1.754464 -10.938623 -2.961481 -5.207579 9.680980 -24.587950 7.787944 1.046173 -60.944135 -6.886068 10.013156 11.749382 -30.946300 6.981862 -1.570028 -9.879288 -9.354138 27.093083 -0.069343 -1.977385 59.279213 5.115065 17.540379 -16.234647 25.556732 -3.747575 -0.277063 6.008201 -9.084801 
-0.628502 0.775893 0.988024 109.732213 3.405380 90.050419 0.552649 1.340986 5.476646 -1.898700 -4.601891 3.806467 4.622273 11.065224 -15.519333 0.000000 -0.000000 0.000000 2.141336 0.343876 -10.410220 0.060467 -4.940296 17.973558 0.563527 -9.830822 -10.787242 0.000000 -0.000000 0.000000 2.151359 -1.619750 7.842546 2.595126 -0.437298 -2.957497 0.703338 -1.650060 2.574851 1.150334 1.712252 -11.487554 -3.049904 -5.107589 9.872472 -24.485872 7.886533 0.783039 -60.974852 -7.085063 10.093401 11.403126 -30.549941 7.289562 -1.665892 -10.199283 -9.854927 27.022657 -0.038740 -2.043801 59.258357 5.136221 17.796457 -16.224915 25.723079 -3.757925 -0.756202 6.467830 -9.414145 
-0.628330 0.776504 0.988332 109.765132 3.350377 90.015510 0.430722 1.267661 5.590978 -1.821878 -4.804185 3.746887 4.657470 11.055690 -15.265169 0.000000 -0.000000 0.000000 2.057158 0.267782 -10.293165 0.009710 -5.025464 17.882888 0.669636 -9.741009 -10.805744 0.000000 -0.000000 0.000000 2.079958 -1.689343 8.022596 2.569013 -0.455975 -2.977974 0.746675 -1.587698 2.498648 1.220905 1.774893 -11.324290 -3.027897 -4.970890 9.864794 -24.542885 7.933697 0.859237 -60.902617 -7.014630 10.014773 11.438930 -30.969353 7.223560 -1.404164 -10.095543 -9.841410 26.964952 0.091346 -2.071207 59.332664 5.147030 17.858987 -15.983141 25.698307 -3.264627 -0.872233 6.252999 -8.960026 
-0.626350 0.777511 0.989008 109.390270 3.224325 89.832973 0.248014 1.835315 6.206256 -1.728516 -5.133413 3.264522 4.507119 11.048568 -15.190832 0.000000 -0.000000 0.000000 1.862274 0.001059 -9.944166 0.082628 -4.730560 17.804668 0.867606 -9.263377 -10.799338 0.000000 -0.000000 0.000000 2.104318 -1.762723 7.760059 2.276848 -0.149608 -2.421773 0.668755 -1.443875 2.446800 0.920087 2.184016 -11.256212 -2.801072 -4.880360 9.815740 -24.460300 7.899881 0.784903 -60.809262 -6.848352 10.005585 11.412287 -31.461147 7.215339 -0.962079 -10.082651 -9.608435 27.220224 0.188359 -1.977470 59.293604 5.283393 17.601955 -15.915485 25.847403 -3.567983 -0.173452 5.835238 -8.965084 
-0.627285 0.777625 0.989221 109.891064 3.127453 90.070496 0.135139 1.289088 5.757310 -1.768365 -4.999675 3.489506 4.541510 10.953483 -15.091738 0.000000 -0.000000 0.000000 1.721159 -0.137889 -10.128872 0.171385 -4.772384 17.615138 0.873380 -9.622987 -10.715259 0.000000 -0.000000 0.000000 1.970971 -1.396040 7.824035 2.383960 -0.474854 -2.571219 0.577049 -1.627279 2.435737 0.584620 3.401987 -11.920838 -2.462288 -4.194565 9.997499 -24.557485 7.750569 0.916923 -60.670327 -7.100203 10.281319 11.582278 -31.635875 6.778303 -0.604297 -10.165546 -9.444555 27.563483 -0.006244 -2.078480 59.193805 5.374245 17.944940 -16.284392 25.962306 -3.944097 -0.200010 5.789503 -8.861167 
-0.627217 0.777679 0.988892 109.992486 3.268697 90.243918 0.363807 1.137976 5.461211 -1.886612 -4.894192 3.741624 4.656407 10.823109 -15.153024 0.000000 -0.000000 0.000000 1.843535 -0.126572 -10.368053 0.177225 -4.925866 17.710041 0.729987 -9.598256 -10.697391 0.000000 -0.000000 0.000000 1.986494 -1.561488 7.636058 2.582458 -0.599565 -2.460776 0.712901 -1.581294 2.378489 1.015541 2.462291 -10.984455 -2.979582 -4.480124 9.775359 -24.714721 7.908998 1.008520 -60.662054 -6.993975 10.022948 11.662457 -31.925472 6.722443 -1.597773 -9.534479 -9.612274 27.184839 0.142880 -1.684732 59.291597 5.699369 17.776572 -16.203910 26.071247 -3.840722 0.345825 5.702331 -8.822859 
-0.626753 0.778183 0.989060 110.151110 3.254291 90.176366 0.322424 1.185821 5.557586 -1.854872 -4.970036 3.673768 4.584513 10.768464 -15.009916 0.000000 -0.000000 0.000000 1.814345 -0.169522 -10.218125 0.151377 -4.958385 17.653792 0.732849 -9.663526 -10.573721 0.000000 -0.000000 0.000000 2.094959 -1.685878 7.716053 2.576258 -0.584225 -2.506048 0.656317 -1.624266 2.423530 1.240806 1.918193 -10.828318 -3.401535 -4.759294 9.955786 -24.792337 7.930019 0.917822 -60.691346 -7.113042 10.007207 11.691599 -31.645496 6.763457 -1.583264 -9.876210 -9.844317 27.032942 0.161788 -1.648120 59.425895 5.847844 17.889573 -16.147968 25.985644 -3.834459 0.363818 5.719607 -9.105896 
-0.626157 0.778557 0.989155 110.366604 3.241162 90.283883 0.252780 1.098135 5.387285 -1.815465 -4.861545 3.833267 4.560102 10.736826 -15.034185 0.000000 -0.000000 0.000000 1.845082 -0.250540 -10.268644 -0.015968 -5.102077 17.651654 0.825886 -9.620139 -10.599942 0.000000 -0.000000 0.000000 2.111055 -1.645107 7.648596 2.530220 -0.600933 -2.377099 0.711256 -1.595751 2.514691 1.062300 1.883480 -10.997546 -3.376392 -4.754044 9.977721 -24.798950 7.895489 0.622485 -60.913808 -7.227888 10.049587 11.676835 -31.428521 6.726483 -1.493377 -10.077600 -9.414644 26.899981 0.329028 -1.823154 59.417539 5.707088 17.990623 -16.082102 26.149685 -3.809683 0.805331 5.609416 -9.048634 
-0.625615 0.778862 0.988867 110.558395 3.142235 90.338828 0.181270 1.091511 5.330056 -1.873524 -4.799847 3.782780 4.652101 10.732657 -15.046020 0.000000 -0.000000 0.000000 1.713444 -0.227041 -10.456489 0.020613 -5.033961 18.014830 0.848992 -9.795185 -10.830929 0.000000 -0.000000 0.000000 1.973314 -1.642746 7.726005 2.556974 -0.657990 -2.384252 0.681365 -1.514468 2.530967 1.068841 1.814213 -10.982281 -3.261408 -4.847615 9.721013 -24.749759 7.808797 0.547673 -60.995845 -7.140465 10.149580 11.573235 -31.357648 7.000675 -1.599284 -9.950725 -9.670558 26.781799 0.331255 -1.699420 59.601911 5.678280 17.932160 -15.948363 26.293202 -3.612527 0.116726 5.649496 -9.122806 
